<svg width="382" height="466" viewBox="0 0 382 466" fill="none" xmlns="http://www.w3.org/2000/svg">
<path d="M381.929 118.445V420.613C381.929 445.296 361.845 465.379 337.162 465.379H132.919C108.236 465.379 88.1534 445.296 88.1534 420.613V224.137C94.539 225.2 101.053 225.888 107.738 225.888C112.479 225.888 117.132 225.536 121.728 224.992V420.613C121.728 426.783 126.747 431.804 132.919 431.804H337.162C343.332 431.804 348.353 426.782 348.353 420.613V118.445C348.353 112.273 343.331 107.253 337.162 107.253H226.374C226.374 95.5814 224.62 84.332 221.477 73.6798H337.162C361.845 73.6788 381.929 93.761 381.929 118.445ZM105.869 211.159C47.6497 211.159 0.287964 163.797 0.287964 105.581C0.288888 47.3617 47.6497 0 105.869 0C164.086 0 211.45 47.3617 211.45 105.581C211.45 163.797 164.086 211.159 105.869 211.159ZM105.869 188.776C151.741 188.776 189.065 151.459 189.065 105.581C189.065 59.7002 151.747 22.3833 105.869 22.3833C59.9891 22.3833 22.6713 59.7002 22.6713 105.581C22.6713 151.459 59.9947 188.776 105.869 188.776ZM169.189 116.773C175.367 116.773 180.381 111.759 180.381 105.582C180.381 99.4043 175.367 94.3906 169.189 94.3906H117.06V50.4579C117.06 44.2803 112.046 39.2667 105.869 39.2667C99.6913 39.2667 94.6777 44.2803 94.6777 50.4579V105.582C94.6777 111.759 99.6913 116.773 105.869 116.773H169.189ZM298.358 207.512H177.118C170.941 207.512 165.927 212.525 165.927 218.703C165.927 224.882 170.941 229.894 177.118 229.894H298.358C304.539 229.894 309.55 224.881 309.55 218.703C309.55 212.525 304.539 207.512 298.358 207.512ZM298.555 275.398H177.315C171.137 275.398 166.124 280.409 166.124 286.589C166.124 292.769 171.137 297.78 177.315 297.78H298.555C304.736 297.78 309.746 292.769 309.746 286.589C309.746 280.409 304.741 275.398 298.555 275.398ZM298.555 346.093H177.315C171.137 346.093 166.124 351.11 166.124 357.284C166.124 363.465 171.137 368.475 177.315 368.475H298.555C304.736 368.475 309.746 363.464 309.746 357.284C309.746 351.109 304.741 346.093 298.555 346.093Z" fill="#1B2732"/>
</svg>
