<svg width="54" height="49" viewBox="0 0 54 49" fill="none" xmlns="http://www.w3.org/2000/svg">
<path d="M47.6278 0L41.1495 7.55806C27.413 1.11971 11.0972 4.40887 0 17.3556L3.83902 21.8344C12.7767 11.4771 25.6134 8.32787 36.8906 12.5268L32.4517 17.7055C23.8139 15.606 14.4563 18.4753 7.73802 26.3832L11.577 30.8621C15.9559 25.7534 21.7744 23.234 27.5929 23.444L20.9946 31.142C18.9551 32.0518 17.0956 33.4514 15.4161 35.4109L16.3758 36.5306L9.41759 44.5086L11.5171 46.958L49.7273 2.44937L47.6278 0Z" fill="#1B2732"/>
<path d="M23.0941 44.3686L26.9331 48.8475L30.7722 44.3686C28.6727 41.8493 25.1936 41.8493 23.0941 44.3686V44.3686Z" fill="#1B2732"/>
<path d="M24.8936 36.3907C28.3127 35.6209 32.0318 36.8106 34.6711 39.8898L38.5101 35.4109C36.1707 32.6816 33.2315 30.9321 30.2322 30.2322L24.8936 36.3907Z" fill="#1B2732"/>
<path d="M34.6111 25.0536C37.4304 26.3132 40.0697 28.2028 42.3492 30.8621L46.1882 26.3832C43.9687 23.7939 41.4494 21.6944 38.7501 20.2248L34.6111 25.0536V25.0536Z" fill="#1B2732"/>
<path d="M46.788 10.8472L42.829 15.466C45.4084 17.1456 47.8677 19.2451 50.0872 21.8344L53.9262 17.3556C51.7068 14.8362 49.3074 12.6668 46.788 10.8472Z" fill="#1B2732"/>
</svg>
