<svg width="512" height="372" viewBox="0 0 512 372" fill="none" xmlns="http://www.w3.org/2000/svg">
<path d="M501.75 107.949L492.907 99.106C425.136 31.344 337.638 0.979004 256 0.979004C174.429 0.979004 86.903 31.304 19.093 99.106L10.25 107.949C3.64 114.559 0 123.349 0 132.699C0 141.92 3.736 150.943 10.25 157.458C23.898 171.101 46.11 171.1 59.761 157.455L68.601 148.615C118.659 98.556 185.211 70.989 256 70.989C326.789 70.989 393.341 98.556 443.398 148.614L452.243 157.46C465.89 171.101 488.102 171.1 501.753 157.455C508.264 150.943 512 141.92 512 132.699C512 123.349 508.36 114.559 501.75 107.949V107.949Z" fill="#1B2732"/>
<path d="M422.185 169.827C377.794 125.436 318.775 100.989 256 100.989C193.225 100.989 134.206 125.436 89.815 169.827L80.974 178.669C67.294 192.343 67.283 214.482 80.972 228.171C94.536 241.734 116.671 241.966 130.486 228.165L139.315 219.336C171.485 187.166 213.743 171.081 256 171.081C298.257 171.081 340.515 187.166 372.685 219.336L381.519 228.171C395.368 242.005 417.507 241.691 431.028 228.171C444.698 214.501 444.723 192.359 431.03 178.674L422.185 169.827Z" fill="#1B2732"/>
<path d="M351.472 240.549C325.15 214.228 290.575 201.067 256 201.067C221.425 201.067 186.85 214.228 160.528 240.549L151.694 249.384C138.168 262.896 137.857 285.071 151.689 298.887C165.363 312.568 187.5 312.587 201.194 298.893L210.037 290.05C222.314 277.774 238.637 271.013 256.001 271.013C273.365 271.013 289.688 277.774 301.964 290.049L310.807 298.892C324.477 312.562 346.62 312.58 360.307 298.893C373.867 285.348 374.114 263.175 360.313 249.39L351.472 240.549Z" fill="#1B2732"/>
<path d="M256 301.013C236.696 301.013 220.991 316.718 220.991 336.022C220.991 355.321 236.696 371.021 256 371.021C275.304 371.021 291.009 355.321 291.009 336.022C291.009 316.718 275.304 301.013 256 301.013Z" fill="#1B2732"/>
</svg>
