<svg width="29" height="29" viewBox="0 0 29 29" fill="none" xmlns="http://www.w3.org/2000/svg">
<path d="M14.4999 3.62512C14.1659 3.62512 13.8957 3.89535 13.8957 4.22931V13.4775C13.5412 13.6884 13.2915 14.0587 13.2915 14.5002C13.2915 15.1663 13.8332 15.7085 14.4998 15.7085C14.6042 15.7085 14.6976 15.6739 14.7943 15.6489L19.5101 20.3648C19.6281 20.4828 19.7828 20.5418 19.9373 20.5418C20.0919 20.5418 20.2465 20.4828 20.3645 20.3648C20.6005 20.1288 20.6005 19.7464 20.3645 19.5105L15.6486 14.7946C15.6736 14.6979 15.7082 14.6045 15.7082 14.5002C15.7082 14.0587 15.4585 13.6884 15.104 13.4775V4.22925C15.1041 3.8953 14.8338 3.62512 14.4999 3.62512Z" fill="#1B2732"/>
<path d="M28.3865 14.5006H27.1754C26.8512 14.5006 26.597 14.7588 26.5815 15.0824C26.2713 21.5916 20.7839 26.7678 14.1553 26.5789C7.85334 26.3992 2.60094 21.1477 2.42286 14.8485C2.23012 8.02746 7.72567 2.41726 14.5067 2.41726C17.3336 2.41726 19.9903 3.40683 22.1029 5.12151L21.3101 6.41518C21.211 6.57746 21.1944 6.77746 21.2641 6.95384C21.3349 7.13084 21.4837 7.26417 21.6678 7.31373L26.6733 8.66897C26.7265 8.6837 26.7796 8.69021 26.8315 8.69021C27.0983 8.69021 27.3415 8.51321 27.4147 8.24417C27.4563 8.09078 27.4315 7.93655 27.3629 7.80617L27.3675 7.80639C27.3639 7.79959 27.3598 7.79319 27.3562 7.7864L27.3552 7.78453C24.9164 3.43153 20.5211 0.384035 15.5419 0.0367713C6.45154 -0.597207 -1.03691 7.19456 0.118213 16.3711C0.941485 22.9115 6.27329 28.1653 12.8265 28.9054C21.359 29.8692 28.646 23.3813 28.9997 15.1289C29.0143 14.787 28.7288 14.5006 28.3865 14.5006Z" fill="#1B2732"/>
</svg>
