<svg width="29" height="29" viewBox="0 0 29 29" fill="none" xmlns="http://www.w3.org/2000/svg">
<path d="M14.5124 3.62448C14.1784 3.62448 13.9082 3.89471 13.9082 4.22867V13.4681C13.5461 13.6771 13.2911 14.0524 13.2911 14.4995C13.2911 15.1656 13.8327 15.7079 14.4994 15.7079C14.5017 15.7079 14.5036 15.7066 14.5059 15.7066C14.5082 15.7066 14.51 15.7079 14.5123 15.7079C14.6166 15.7079 14.71 15.6732 14.8067 15.6483L19.5226 20.3642C19.6406 20.4821 19.7952 20.5412 19.9498 20.5412C20.1044 20.5412 20.2589 20.4821 20.377 20.3642C20.613 20.1281 20.613 19.7458 20.377 19.5099L15.6611 14.794C15.6861 14.6973 15.7207 14.6039 15.7207 14.4995C15.7207 14.0581 15.471 13.6878 15.1165 13.4768V4.22861C15.1165 3.89466 14.8463 3.62448 14.5124 3.62448Z" fill="#1B2732"/>
<path d="M13.4583 0.0361606C8.47913 0.383424 4.08382 3.43092 1.64504 7.78397L1.64402 7.78584C1.64045 7.79264 1.63626 7.79904 1.63275 7.80584L1.63734 7.80561C1.5688 7.936 1.54394 8.09023 1.58557 8.24361C1.65875 8.51266 1.90196 8.68966 2.16874 8.68966C2.22068 8.68966 2.27381 8.68314 2.32694 8.66842L7.33244 7.31318C7.51658 7.26362 7.66537 7.13029 7.73617 6.95328C7.80584 6.77685 7.7893 6.57685 7.69012 6.41463L6.89738 5.12096C9.00996 3.40633 11.6667 2.41671 14.4936 2.41671C21.2746 2.41671 26.7701 8.02685 26.5773 14.848C26.3994 21.1473 21.1469 26.3987 14.845 26.5784C8.21626 26.7673 2.72886 21.591 2.4187 15.0818C2.40329 14.7582 2.14892 14.5 1.82482 14.5H0.613729C0.271393 14.5 -0.014076 14.7864 0.000537288 15.1283C0.354201 23.3807 7.64124 29.8687 16.1737 28.9049C22.7269 28.1647 28.0587 22.9109 28.882 16.3706C30.0372 7.19401 22.5487 -0.597818 13.4583 0.0361606Z" fill="#1B2732"/>
</svg>
